<?xml version="1.0" standalone="no"?>
<!DOCTYPE svg PUBLIC "-//W3C//DTD SVG 20010904//EN"
 "http://www.w3.org/TR/2001/REC-SVG-20010904/DTD/svg10.dtd">
<svg version="1.0" xmlns="http://www.w3.org/2000/svg"
 width="1024.000000pt" height="1024.000000pt" viewBox="0 0 1024.000000 1024.000000"
 preserveAspectRatio="xMidYMid meet">
<metadata>
Created by potrace 1.16, written by Peter Selinger 2001-2019
</metadata>
<g transform="translate(0.000000,1024.000000) scale(0.100000,-0.100000)"
fill="#000000" stroke="none">
<path d="M10234 10045 c0 -99 2 -138 3 -87 2 51 2 132 0 180 -1 48 -3 6 -3
-93z"/>
<path d="M10233 9765 c0 -38 2 -53 4 -32 2 20 2 52 0 70 -2 17 -4 1 -4 -38z"/>
<path d="M10233 9630 c0 -30 2 -43 4 -27 2 15 2 39 0 55 -2 15 -4 2 -4 -28z"/>
<path d="M10234 9415 c0 -66 1 -92 3 -57 2 34 2 88 0 120 -2 31 -3 3 -3 -63z"/>
<path d="M10231 7724 c0 -11 3 -14 6 -6 3 7 2 16 -1 19 -3 4 -6 -2 -5 -13z"/>
<path d="M10232 7670 c0 -14 2 -19 5 -12 2 6 2 18 0 25 -3 6 -5 1 -5 -13z"/>
<path d="M5888 6123 c12 -2 32 -2 45 0 12 2 2 4 -23 4 -25 0 -35 -2 -22 -4z"/>
<path d="M4835 6114 c-27 -3 -158 -13 -290 -24 -132 -11 -287 -20 -345 -21
-58 -1 -99 -4 -92 -7 6 -2 9 -9 5 -15 -4 -7 0 -8 13 -3 10 4 82 11 159 16 77
5 196 14 265 20 300 25 381 30 486 30 61 0 139 -3 173 -6 57 -6 62 -9 57 -28
-15 -54 -14 -66 1 -24 9 27 14 51 10 54 -8 8 -366 14 -442 8z"/>
<path d="M5726 6094 c-92 -22 -181 -70 -244 -131 l-57 -55 58 51 c119 104 255
146 452 138 66 -3 127 -8 136 -11 10 -4 16 -2 16 7 0 21 -279 22 -361 1z"/>
<path d="M6108 6093 c7 -3 16 -2 19 1 4 3 -2 6 -13 5 -11 0 -14 -3 -6 -6z"/>
<path d="M6166 6076 c50 -22 82 -27 39 -7 -22 11 -47 20 -55 20 -8 0 -1 -6 16
-13z"/>
<path d="M4055 6053 c-11 -3 -24 -9 -30 -14 -12 -12 -46 -242 -37 -250 4 -3
36 9 72 28 36 18 58 33 50 33 -8 0 -39 -14 -69 -30 -52 -29 -53 -29 -47 -7 3
12 11 66 18 121 9 73 16 99 27 103 51 15 62 27 16 16z"/>
<path d="M6297 6026 l52 -25 -19 -57 c-11 -31 -18 -59 -16 -61 2 -2 12 20 21
49 10 29 20 58 22 64 4 11 -42 37 -87 48 -14 3 -2 -5 27 -18z"/>
<path d="M5231 5953 c-7 -26 -19 -71 -27 -99 l-14 -51 -48 24 c-66 32 -135 43
-273 43 l-119 0 2 -402 3 -403 2 398 3 397 114 0 c133 0 203 -11 269 -44 43
-21 49 -22 56 -7 13 25 53 182 48 187 -2 3 -10 -17 -16 -43z"/>
<path d="M5396 5862 c-44 -69 -60 -130 -59 -227 0 -103 15 -152 70 -233 52
-76 141 -137 373 -257 113 -58 231 -126 262 -150 72 -57 103 -117 95 -183 -4
-34 -2 -41 5 -28 16 29 3 103 -26 146 -40 60 -129 120 -328 221 -221 113 -279
150 -345 222 -114 126 -133 303 -48 465 37 70 37 81 1 24z"/>
<path d="M5732 5861 c-73 -25 -153 -106 -152 -153 1 -7 8 3 16 22 21 48 50 78
109 108 73 38 222 43 315 12 78 -26 139 -60 191 -107 37 -34 38 -34 49 -13 6
12 9 24 7 27 -3 2 -8 -5 -12 -17 -7 -22 -7 -22 -38 8 -50 47 -126 91 -196 112
-83 26 -215 26 -289 1z"/>
<path d="M4152 5862 c-13 -4 53 -5 147 -3 l171 3 3 -648 2 -649 3 653 2 652
-152 -1 c-84 -1 -163 -4 -176 -7z"/>
<path d="M6286 5824 c-9 -26 -14 -49 -12 -51 2 -2 11 17 20 43 9 26 14 49 12
51 -2 2 -11 -17 -20 -43z"/>
<path d="M5571 5660 c-1 -50 36 -117 89 -161 40 -33 440 -236 440 -223 0 3
-84 45 -186 95 -265 127 -316 169 -334 277 -7 43 -8 44 -9 12z"/>
<path d="M6130 5253 c146 -106 214 -185 244 -281 8 -26 15 -38 15 -27 1 31
-41 114 -87 172 -36 44 -135 125 -182 147 -8 4 -4 -1 10 -11z"/>
<path d="M4752 5030 c0 -14 2 -19 5 -12 2 6 2 18 0 25 -3 6 -5 1 -5 -13z"/>
<path d="M4740 4700 l0 -290 -125 0 -124 0 -4 73 -3 72 -2 -77 -2 -78 135 0
135 0 0 295 c0 162 -2 295 -5 295 -3 0 -5 -130 -5 -290z"/>
<path d="M6393 4860 c0 -36 2 -50 4 -32 2 17 2 47 0 65 -2 17 -4 3 -4 -33z"/>
<path d="M5332 4799 c-5 -13 -12 -35 -16 -49 -5 -21 -3 -20 9 5 8 17 14 36 15
43 0 6 17 -5 38 -26 65 -65 213 -155 228 -139 3 3 -10 10 -27 16 -52 18 -130
70 -186 124 -52 50 -52 50 -61 26z"/>
<path d="M6376 4759 c-8 -42 0 -50 9 -9 4 17 5 34 2 36 -2 3 -7 -10 -11 -27z"/>
<path d="M6116 4743 c-6 -14 -5 -15 5 -6 7 7 10 15 7 18 -3 3 -9 -2 -12 -12z"/>
<path d="M5276 4633 c-29 -88 -27 -104 14 -102 8 0 4 5 -9 10 -12 5 -21 15
-19 22 23 60 49 149 46 152 -2 3 -17 -34 -32 -82z"/>
<path d="M6084 4698 c-10 -11 -39 -34 -63 -50 -25 -15 -40 -28 -34 -28 13 0
82 51 107 79 11 11 17 21 14 21 -3 0 -13 -10 -24 -22z"/>
<path d="M6347 4675 c-9 -19 -15 -35 -12 -35 7 0 37 61 33 66 -3 2 -12 -12
-21 -31z"/>
<path d="M10233 4675 c0 -22 2 -30 4 -17 2 12 2 30 0 40 -3 9 -5 -1 -4 -23z"/>
<path d="M5635 4620 c11 -5 27 -9 35 -9 9 0 8 4 -5 9 -11 5 -27 9 -35 9 -9 0
-8 -4 5 -9z"/>
<path d="M6260 4561 c-36 -37 -76 -75 -90 -85 -18 -12 -15 -12 8 2 38 21 128
106 143 134 14 25 12 24 -61 -51z"/>
<path d="M5890 4609 c-30 -4 -89 -6 -130 -3 -72 3 -73 3 -25 -7 53 -10 181 -4
218 11 26 10 13 10 -63 -1z"/>
<path d="M10232 4545 c0 -16 2 -22 5 -12 2 9 2 23 0 30 -3 6 -5 -1 -5 -18z"/>
<path d="M5350 4512 c8 -5 26 -13 40 -16 17 -5 20 -4 10 2 -8 5 -26 13 -40 16
-17 5 -20 4 -10 -2z"/>
<path d="M5479 4460 c128 -61 192 -75 346 -75 107 0 154 4 199 18 80 25 67 29
-19 7 -86 -23 -243 -25 -337 -6 -36 8 -101 29 -145 46 -106 43 -121 46 -44 10z"/>
<path d="M6110 4445 c-14 -8 -20 -14 -14 -15 5 0 19 7 30 15 24 18 16 19 -16
0z"/>
<path d="M10232 4340 c0 -14 2 -19 5 -12 2 6 2 18 0 25 -3 6 -5 1 -5 -13z"/>
<path d="M10232 4245 c0 -16 2 -22 5 -12 2 9 2 23 0 30 -3 6 -5 -1 -5 -18z"/>
<path d="M10233 3180 c0 -41 2 -58 4 -37 2 20 2 54 0 75 -2 20 -4 3 -4 -38z"/>
<path d="M10232 2415 c0 -16 2 -22 5 -12 2 9 2 23 0 30 -3 6 -5 -1 -5 -18z"/>
<path d="M10232 2270 c0 -14 2 -19 5 -12 2 6 2 18 0 25 -3 6 -5 1 -5 -13z"/>
<path d="M10234 2040 c0 -74 1 -105 3 -67 2 37 2 97 0 135 -2 37 -3 6 -3 -68z"/>
<path d="M10234 1505 c0 -126 2 -177 3 -112 2 65 2 168 0 230 -1 62 -3 9 -3
-118z"/>
<path d="M10234 840 c0 -107 2 -151 3 -97 2 53 2 141 0 195 -1 53 -3 9 -3 -98z"/>
<path d="M10232 530 c0 -14 2 -19 5 -12 2 6 2 18 0 25 -3 6 -5 1 -5 -13z"/>
<path d="M10234 210 c0 -118 2 -167 3 -108 2 60 2 156 0 215 -1 60 -3 11 -3
-107z"/>
</g>
</svg>
